<svg version="1.1" xmlns="http://www.w3.org/2000/svg" xmlns:xlink="http://www.w3.org/1999/xlink" xmlns:ev="http://www.w3.org/2001/xml-events" width="198" height="198" shape-rendering="crispEdges">
<rect width="6" height="6" x="0" y="0" style="fill:#000"/><rect width="6" height="6" x="6" y="0" style="fill:#000"/><rect width="6" height="6" x="12" y="0" style="fill:#000"/><rect width="6" height="6" x="18" y="0" style="fill:#000"/><rect width="6" height="6" x="24" y="0" style="fill:#000"/><rect width="6" height="6" x="30" y="0" style="fill:#000"/><rect width="6" height="6" x="36" y="0" style="fill:#000"/><rect width="6" height="6" x="48" y="0" style="fill:#000"/><rect width="6" height="6" x="78" y="0" style="fill:#000"/><rect width="6" height="6" x="108" y="0" style="fill:#000"/><rect width="6" height="6" x="138" y="0" style="fill:#000"/><rect width="6" height="6" x="144" y="0" style="fill:#000"/><rect width="6" height="6" x="156" y="0" style="fill:#000"/><rect width="6" height="6" x="162" y="0" style="fill:#000"/><rect width="6" height="6" x="168" y="0" style="fill:#000"/><rect width="6" height="6" x="174" y="0" style="fill:#000"/><rect width="6" height="6" x="180" y="0" style="fill:#000"/><rect width="6" height="6" x="186" y="0" style="fill:#000"/><rect width="6" height="6" x="192" y="0" style="fill:#000"/>
<rect width="6" height="6" x="0" y="6" style="fill:#000"/><rect width="6" height="6" x="36" y="6" style="fill:#000"/><rect width="6" height="6" x="48" y="6" style="fill:#000"/><rect width="6" height="6" x="66" y="6" style="fill:#000"/><rect width="6" height="6" x="90" y="6" style="fill:#000"/><rect width="6" height="6" x="102" y="6" style="fill:#000"/><rect width="6" height="6" x="108" y="6" style="fill:#000"/><rect width="6" height="6" x="114" y="6" style="fill:#000"/><rect width="6" height="6" x="132" y="6" style="fill:#000"/><rect width="6" height="6" x="138" y="6" style="fill:#000"/><rect width="6" height="6" x="156" y="6" style="fill:#000"/><rect width="6" height="6" x="192" y="6" style="fill:#000"/>
<rect width="6" height="6" x="0" y="12" style="fill:#000"/><rect width="6" height="6" x="12" y="12" style="fill:#000"/><rect width="6" height="6" x="18" y="12" style="fill:#000"/><rect width="6" height="6" x="24" y="12" style="fill:#000"/><rect width="6" height="6" x="36" y="12" style="fill:#000"/><rect width="6" height="6" x="60" y="12" style="fill:#000"/><rect width="6" height="6" x="72" y="12" style="fill:#000"/><rect width="6" height="6" x="84" y="12" style="fill:#000"/><rect width="6" height="6" x="90" y="12" style="fill:#000"/><rect width="6" height="6" x="108" y="12" style="fill:#000"/><rect width="6" height="6" x="114" y="12" style="fill:#000"/><rect width="6" height="6" x="132" y="12" style="fill:#000"/><rect width="6" height="6" x="144" y="12" style="fill:#000"/><rect width="6" height="6" x="156" y="12" style="fill:#000"/><rect width="6" height="6" x="168" y="12" style="fill:#000"/><rect width="6" height="6" x="174" y="12" style="fill:#000"/><rect width="6" height="6" x="180" y="12" style="fill:#000"/><rect width="6" height="6" x="192" y="12" style="fill:#000"/>
<rect width="6" height="6" x="0" y="18" style="fill:#000"/><rect width="6" height="6" x="12" y="18" style="fill:#000"/><rect width="6" height="6" x="18" y="18" style="fill:#000"/><rect width="6" height="6" x="24" y="18" style="fill:#000"/><rect width="6" height="6" x="36" y="18" style="fill:#000"/><rect width="6" height="6" x="48" y="18" style="fill:#000"/><rect width="6" height="6" x="66" y="18" style="fill:#000"/><rect width="6" height="6" x="72" y="18" style="fill:#000"/><rect width="6" height="6" x="90" y="18" style="fill:#000"/><rect width="6" height="6" x="114" y="18" style="fill:#000"/><rect width="6" height="6" x="120" y="18" style="fill:#000"/><rect width="6" height="6" x="144" y="18" style="fill:#000"/><rect width="6" height="6" x="156" y="18" style="fill:#000"/><rect width="6" height="6" x="168" y="18" style="fill:#000"/><rect width="6" height="6" x="174" y="18" style="fill:#000"/><rect width="6" height="6" x="180" y="18" style="fill:#000"/><rect width="6" height="6" x="192" y="18" style="fill:#000"/>
<rect width="6" height="6" x="0" y="24" style="fill:#000"/><rect width="6" height="6" x="12" y="24" style="fill:#000"/><rect width="6" height="6" x="18" y="24" style="fill:#000"/><rect width="6" height="6" x="24" y="24" style="fill:#000"/><rect width="6" height="6" x="36" y="24" style="fill:#000"/><rect width="6" height="6" x="48" y="24" style="fill:#000"/><rect width="6" height="6" x="60" y="24" style="fill:#000"/><rect width="6" height="6" x="72" y="24" style="fill:#000"/><rect width="6" height="6" x="84" y="24" style="fill:#000"/><rect width="6" height="6" x="90" y="24" style="fill:#000"/><rect width="6" height="6" x="96" y="24" style="fill:#000"/><rect width="6" height="6" x="108" y="24" style="fill:#000"/><rect width="6" height="6" x="114" y="24" style="fill:#000"/><rect width="6" height="6" x="120" y="24" style="fill:#000"/><rect width="6" height="6" x="126" y="24" style="fill:#000"/><rect width="6" height="6" x="132" y="24" style="fill:#000"/><rect width="6" height="6" x="144" y="24" style="fill:#000"/><rect width="6" height="6" x="156" y="24" style="fill:#000"/><rect width="6" height="6" x="168" y="24" style="fill:#000"/><rect width="6" height="6" x="174" y="24" style="fill:#000"/><rect width="6" height="6" x="180" y="24" style="fill:#000"/><rect width="6" height="6" x="192" y="24" style="fill:#000"/>
<rect width="6" height="6" x="0" y="30" style="fill:#000"/><rect width="6" height="6" x="36" y="30" style="fill:#000"/><rect width="6" height="6" x="48" y="30" style="fill:#000"/><rect width="6" height="6" x="54" y="30" style="fill:#000"/><rect width="6" height="6" x="66" y="30" style="fill:#000"/><rect width="6" height="6" x="102" y="30" style="fill:#000"/><rect width="6" height="6" x="114" y="30" style="fill:#000"/><rect width="6" height="6" x="120" y="30" style="fill:#000"/><rect width="6" height="6" x="132" y="30" style="fill:#000"/><rect width="6" height="6" x="144" y="30" style="fill:#000"/><rect width="6" height="6" x="156" y="30" style="fill:#000"/><rect width="6" height="6" x="192" y="30" style="fill:#000"/>
<rect width="6" height="6" x="0" y="36" style="fill:#000"/><rect width="6" height="6" x="6" y="36" style="fill:#000"/><rect width="6" height="6" x="12" y="36" style="fill:#000"/><rect width="6" height="6" x="18" y="36" style="fill:#000"/><rect width="6" height="6" x="24" y="36" style="fill:#000"/><rect width="6" height="6" x="30" y="36" style="fill:#000"/><rect width="6" height="6" x="36" y="36" style="fill:#000"/><rect width="6" height="6" x="48" y="36" style="fill:#000"/><rect width="6" height="6" x="60" y="36" style="fill:#000"/><rect width="6" height="6" x="72" y="36" style="fill:#000"/><rect width="6" height="6" x="84" y="36" style="fill:#000"/><rect width="6" height="6" x="96" y="36" style="fill:#000"/><rect width="6" height="6" x="108" y="36" style="fill:#000"/><rect width="6" height="6" x="120" y="36" style="fill:#000"/><rect width="6" height="6" x="132" y="36" style="fill:#000"/><rect width="6" height="6" x="144" y="36" style="fill:#000"/><rect width="6" height="6" x="156" y="36" style="fill:#000"/><rect width="6" height="6" x="162" y="36" style="fill:#000"/><rect width="6" height="6" x="168" y="36" style="fill:#000"/><rect width="6" height="6" x="174" y="36" style="fill:#000"/><rect width="6" height="6" x="180" y="36" style="fill:#000"/><rect width="6" height="6" x="186" y="36" style="fill:#000"/><rect width="6" height="6" x="192" y="36" style="fill:#000"/>
<rect width="6" height="6" x="54" y="42" style="fill:#000"/><rect width="6" height="6" x="60" y="42" style="fill:#000"/><rect width="6" height="6" x="66" y="42" style="fill:#000"/><rect width="6" height="6" x="72" y="42" style="fill:#000"/><rect width="6" height="6" x="102" y="42" style="fill:#000"/><rect width="6" height="6" x="114" y="42" style="fill:#000"/><rect width="6" height="6" x="120" y="42" style="fill:#000"/><rect width="6" height="6" x="126" y="42" style="fill:#000"/><rect width="6" height="6" x="132" y="42" style="fill:#000"/><rect width="6" height="6" x="138" y="42" style="fill:#000"/>
<rect width="6" height="6" x="18" y="48" style="fill:#000"/><rect width="6" height="6" x="36" y="48" style="fill:#000"/><rect width="6" height="6" x="54" y="48" style="fill:#000"/><rect width="6" height="6" x="78" y="48" style="fill:#000"/><rect width="6" height="6" x="84" y="48" style="fill:#000"/><rect width="6" height="6" x="96" y="48" style="fill:#000"/><rect width="6" height="6" x="120" y="48" style="fill:#000"/><rect width="6" height="6" x="126" y="48" style="fill:#000"/><rect width="6" height="6" x="132" y="48" style="fill:#000"/><rect width="6" height="6" x="138" y="48" style="fill:#000"/><rect width="6" height="6" x="144" y="48" style="fill:#000"/><rect width="6" height="6" x="162" y="48" style="fill:#000"/><rect width="6" height="6" x="168" y="48" style="fill:#000"/><rect width="6" height="6" x="174" y="48" style="fill:#000"/><rect width="6" height="6" x="186" y="48" style="fill:#000"/><rect width="6" height="6" x="192" y="48" style="fill:#000"/>
<rect width="6" height="6" x="0" y="54" style="fill:#000"/><rect width="6" height="6" x="6" y="54" style="fill:#000"/><rect width="6" height="6" x="12" y="54" style="fill:#000"/><rect width="6" height="6" x="18" y="54" style="fill:#000"/><rect width="6" height="6" x="24" y="54" style="fill:#000"/><rect width="6" height="6" x="48" y="54" style="fill:#000"/><rect width="6" height="6" x="54" y="54" style="fill:#000"/><rect width="6" height="6" x="60" y="54" style="fill:#000"/><rect width="6" height="6" x="108" y="54" style="fill:#000"/><rect width="6" height="6" x="120" y="54" style="fill:#000"/><rect width="6" height="6" x="144" y="54" style="fill:#000"/><rect width="6" height="6" x="150" y="54" style="fill:#000"/><rect width="6" height="6" x="156" y="54" style="fill:#000"/><rect width="6" height="6" x="180" y="54" style="fill:#000"/><rect width="6" height="6" x="186" y="54" style="fill:#000"/><rect width="6" height="6" x="192" y="54" style="fill:#000"/>
<rect width="6" height="6" x="6" y="60" style="fill:#000"/><rect width="6" height="6" x="12" y="60" style="fill:#000"/><rect width="6" height="6" x="24" y="60" style="fill:#000"/><rect width="6" height="6" x="36" y="60" style="fill:#000"/><rect width="6" height="6" x="42" y="60" style="fill:#000"/><rect width="6" height="6" x="48" y="60" style="fill:#000"/><rect width="6" height="6" x="90" y="60" style="fill:#000"/><rect width="6" height="6" x="102" y="60" style="fill:#000"/><rect width="6" height="6" x="114" y="60" style="fill:#000"/><rect width="6" height="6" x="126" y="60" style="fill:#000"/><rect width="6" height="6" x="132" y="60" style="fill:#000"/><rect width="6" height="6" x="162" y="60" style="fill:#000"/><rect width="6" height="6" x="174" y="60" style="fill:#000"/><rect width="6" height="6" x="180" y="60" style="fill:#000"/><rect width="6" height="6" x="186" y="60" style="fill:#000"/><rect width="6" height="6" x="192" y="60" style="fill:#000"/>
<rect width="6" height="6" x="0" y="66" style="fill:#000"/><rect width="6" height="6" x="6" y="66" style="fill:#000"/><rect width="6" height="6" x="18" y="66" style="fill:#000"/><rect width="6" height="6" x="24" y="66" style="fill:#000"/><rect width="6" height="6" x="48" y="66" style="fill:#000"/><rect width="6" height="6" x="72" y="66" style="fill:#000"/><rect width="6" height="6" x="78" y="66" style="fill:#000"/><rect width="6" height="6" x="84" y="66" style="fill:#000"/><rect width="6" height="6" x="96" y="66" style="fill:#000"/><rect width="6" height="6" x="102" y="66" style="fill:#000"/><rect width="6" height="6" x="162" y="66" style="fill:#000"/><rect width="6" height="6" x="168" y="66" style="fill:#000"/><rect width="6" height="6" x="174" y="66" style="fill:#000"/><rect width="6" height="6" x="186" y="66" style="fill:#000"/><rect width="6" height="6" x="192" y="66" style="fill:#000"/>
<rect width="6" height="6" x="0" y="72" style="fill:#000"/><rect width="6" height="6" x="6" y="72" style="fill:#000"/><rect width="6" height="6" x="24" y="72" style="fill:#000"/><rect width="6" height="6" x="30" y="72" style="fill:#000"/><rect width="6" height="6" x="36" y="72" style="fill:#000"/><rect width="6" height="6" x="54" y="72" style="fill:#000"/><rect width="6" height="6" x="66" y="72" style="fill:#000"/><rect width="6" height="6" x="78" y="72" style="fill:#000"/><rect width="6" height="6" x="84" y="72" style="fill:#000"/><rect width="6" height="6" x="90" y="72" style="fill:#000"/><rect width="6" height="6" x="96" y="72" style="fill:#000"/><rect width="6" height="6" x="102" y="72" style="fill:#000"/><rect width="6" height="6" x="138" y="72" style="fill:#000"/><rect width="6" height="6" x="144" y="72" style="fill:#000"/><rect width="6" height="6" x="150" y="72" style="fill:#000"/><rect width="6" height="6" x="156" y="72" style="fill:#000"/><rect width="6" height="6" x="168" y="72" style="fill:#000"/><rect width="6" height="6" x="186" y="72" style="fill:#000"/>
<rect width="6" height="6" x="6" y="78" style="fill:#000"/><rect width="6" height="6" x="12" y="78" style="fill:#000"/><rect width="6" height="6" x="24" y="78" style="fill:#000"/><rect width="6" height="6" x="48" y="78" style="fill:#000"/><rect width="6" height="6" x="78" y="78" style="fill:#000"/><rect width="6" height="6" x="84" y="78" style="fill:#000"/><rect width="6" height="6" x="108" y="78" style="fill:#000"/><rect width="6" height="6" x="114" y="78" style="fill:#000"/><rect width="6" height="6" x="120" y="78" style="fill:#000"/><rect width="6" height="6" x="126" y="78" style="fill:#000"/><rect width="6" height="6" x="132" y="78" style="fill:#000"/><rect width="6" height="6" x="156" y="78" style="fill:#000"/><rect width="6" height="6" x="180" y="78" style="fill:#000"/><rect width="6" height="6" x="186" y="78" style="fill:#000"/><rect width="6" height="6" x="192" y="78" style="fill:#000"/>
<rect width="6" height="6" x="0" y="84" style="fill:#000"/><rect width="6" height="6" x="6" y="84" style="fill:#000"/><rect width="6" height="6" x="18" y="84" style="fill:#000"/><rect width="6" height="6" x="24" y="84" style="fill:#000"/><rect width="6" height="6" x="36" y="84" style="fill:#000"/><rect width="6" height="6" x="42" y="84" style="fill:#000"/><rect width="6" height="6" x="48" y="84" style="fill:#000"/><rect width="6" height="6" x="54" y="84" style="fill:#000"/><rect width="6" height="6" x="60" y="84" style="fill:#000"/><rect width="6" height="6" x="66" y="84" style="fill:#000"/><rect width="6" height="6" x="72" y="84" style="fill:#000"/><rect width="6" height="6" x="78" y="84" style="fill:#000"/><rect width="6" height="6" x="96" y="84" style="fill:#000"/><rect width="6" height="6" x="102" y="84" style="fill:#000"/><rect width="6" height="6" x="126" y="84" style="fill:#000"/><rect width="6" height="6" x="132" y="84" style="fill:#000"/><rect width="6" height="6" x="138" y="84" style="fill:#000"/><rect width="6" height="6" x="150" y="84" style="fill:#000"/><rect width="6" height="6" x="174" y="84" style="fill:#000"/><rect width="6" height="6" x="186" y="84" style="fill:#000"/>
<rect width="6" height="6" x="0" y="90" style="fill:#000"/><rect width="6" height="6" x="6" y="90" style="fill:#000"/><rect width="6" height="6" x="12" y="90" style="fill:#000"/><rect width="6" height="6" x="48" y="90" style="fill:#000"/><rect width="6" height="6" x="60" y="90" style="fill:#000"/><rect width="6" height="6" x="78" y="90" style="fill:#000"/><rect width="6" height="6" x="90" y="90" style="fill:#000"/><rect width="6" height="6" x="96" y="90" style="fill:#000"/><rect width="6" height="6" x="114" y="90" style="fill:#000"/><rect width="6" height="6" x="126" y="90" style="fill:#000"/><rect width="6" height="6" x="138" y="90" style="fill:#000"/><rect width="6" height="6" x="144" y="90" style="fill:#000"/><rect width="6" height="6" x="168" y="90" style="fill:#000"/><rect width="6" height="6" x="180" y="90" style="fill:#000"/><rect width="6" height="6" x="186" y="90" style="fill:#000"/><rect width="6" height="6" x="192" y="90" style="fill:#000"/>
<rect width="6" height="6" x="12" y="96" style="fill:#000"/><rect width="6" height="6" x="18" y="96" style="fill:#000"/><rect width="6" height="6" x="24" y="96" style="fill:#000"/><rect width="6" height="6" x="36" y="96" style="fill:#000"/><rect width="6" height="6" x="42" y="96" style="fill:#000"/><rect width="6" height="6" x="48" y="96" style="fill:#000"/><rect width="6" height="6" x="60" y="96" style="fill:#000"/><rect width="6" height="6" x="66" y="96" style="fill:#000"/><rect width="6" height="6" x="72" y="96" style="fill:#000"/><rect width="6" height="6" x="84" y="96" style="fill:#000"/><rect width="6" height="6" x="90" y="96" style="fill:#000"/><rect width="6" height="6" x="102" y="96" style="fill:#000"/><rect width="6" height="6" x="114" y="96" style="fill:#000"/><rect width="6" height="6" x="120" y="96" style="fill:#000"/><rect width="6" height="6" x="126" y="96" style="fill:#000"/><rect width="6" height="6" x="156" y="96" style="fill:#000"/><rect width="6" height="6" x="168" y="96" style="fill:#000"/><rect width="6" height="6" x="180" y="96" style="fill:#000"/><rect width="6" height="6" x="186" y="96" style="fill:#000"/>
<rect width="6" height="6" x="0" y="102" style="fill:#000"/><rect width="6" height="6" x="6" y="102" style="fill:#000"/><rect width="6" height="6" x="18" y="102" style="fill:#000"/><rect width="6" height="6" x="42" y="102" style="fill:#000"/><rect width="6" height="6" x="48" y="102" style="fill:#000"/><rect width="6" height="6" x="54" y="102" style="fill:#000"/><rect width="6" height="6" x="72" y="102" style="fill:#000"/><rect width="6" height="6" x="78" y="102" style="fill:#000"/><rect width="6" height="6" x="96" y="102" style="fill:#000"/><rect width="6" height="6" x="102" y="102" style="fill:#000"/><rect width="6" height="6" x="108" y="102" style="fill:#000"/><rect width="6" height="6" x="114" y="102" style="fill:#000"/><rect width="6" height="6" x="132" y="102" style="fill:#000"/><rect width="6" height="6" x="138" y="102" style="fill:#000"/><rect width="6" height="6" x="150" y="102" style="fill:#000"/><rect width="6" height="6" x="180" y="102" style="fill:#000"/><rect width="6" height="6" x="186" y="102" style="fill:#000"/><rect width="6" height="6" x="192" y="102" style="fill:#000"/>
<rect width="6" height="6" x="0" y="108" style="fill:#000"/><rect width="6" height="6" x="6" y="108" style="fill:#000"/><rect width="6" height="6" x="12" y="108" style="fill:#000"/><rect width="6" height="6" x="24" y="108" style="fill:#000"/><rect width="6" height="6" x="36" y="108" style="fill:#000"/><rect width="6" height="6" x="42" y="108" style="fill:#000"/><rect width="6" height="6" x="54" y="108" style="fill:#000"/><rect width="6" height="6" x="60" y="108" style="fill:#000"/><rect width="6" height="6" x="66" y="108" style="fill:#000"/><rect width="6" height="6" x="78" y="108" style="fill:#000"/><rect width="6" height="6" x="90" y="108" style="fill:#000"/><rect width="6" height="6" x="96" y="108" style="fill:#000"/><rect width="6" height="6" x="102" y="108" style="fill:#000"/><rect width="6" height="6" x="108" y="108" style="fill:#000"/><rect width="6" height="6" x="126" y="108" style="fill:#000"/><rect width="6" height="6" x="132" y="108" style="fill:#000"/><rect width="6" height="6" x="144" y="108" style="fill:#000"/><rect width="6" height="6" x="156" y="108" style="fill:#000"/><rect width="6" height="6" x="168" y="108" style="fill:#000"/><rect width="6" height="6" x="174" y="108" style="fill:#000"/><rect width="6" height="6" x="192" y="108" style="fill:#000"/>
<rect width="6" height="6" x="0" y="114" style="fill:#000"/><rect width="6" height="6" x="6" y="114" style="fill:#000"/><rect width="6" height="6" x="12" y="114" style="fill:#000"/><rect width="6" height="6" x="18" y="114" style="fill:#000"/><rect width="6" height="6" x="24" y="114" style="fill:#000"/><rect width="6" height="6" x="48" y="114" style="fill:#000"/><rect width="6" height="6" x="54" y="114" style="fill:#000"/><rect width="6" height="6" x="78" y="114" style="fill:#000"/><rect width="6" height="6" x="84" y="114" style="fill:#000"/><rect width="6" height="6" x="90" y="114" style="fill:#000"/><rect width="6" height="6" x="102" y="114" style="fill:#000"/><rect width="6" height="6" x="108" y="114" style="fill:#000"/><rect width="6" height="6" x="120" y="114" style="fill:#000"/><rect width="6" height="6" x="126" y="114" style="fill:#000"/><rect width="6" height="6" x="132" y="114" style="fill:#000"/><rect width="6" height="6" x="150" y="114" style="fill:#000"/><rect width="6" height="6" x="168" y="114" style="fill:#000"/><rect width="6" height="6" x="174" y="114" style="fill:#000"/><rect width="6" height="6" x="186" y="114" style="fill:#000"/>
<rect width="6" height="6" x="0" y="120" style="fill:#000"/><rect width="6" height="6" x="6" y="120" style="fill:#000"/><rect width="6" height="6" x="18" y="120" style="fill:#000"/><rect width="6" height="6" x="30" y="120" style="fill:#000"/><rect width="6" height="6" x="36" y="120" style="fill:#000"/><rect width="6" height="6" x="42" y="120" style="fill:#000"/><rect width="6" height="6" x="60" y="120" style="fill:#000"/><rect width="6" height="6" x="72" y="120" style="fill:#000"/><rect width="6" height="6" x="78" y="120" style="fill:#000"/><rect width="6" height="6" x="96" y="120" style="fill:#000"/><rect width="6" height="6" x="108" y="120" style="fill:#000"/><rect width="6" height="6" x="126" y="120" style="fill:#000"/><rect width="6" height="6" x="132" y="120" style="fill:#000"/><rect width="6" height="6" x="138" y="120" style="fill:#000"/><rect width="6" height="6" x="144" y="120" style="fill:#000"/><rect width="6" height="6" x="174" y="120" style="fill:#000"/><rect width="6" height="6" x="186" y="120" style="fill:#000"/><rect width="6" height="6" x="192" y="120" style="fill:#000"/>
<rect width="6" height="6" x="6" y="126" style="fill:#000"/><rect width="6" height="6" x="12" y="126" style="fill:#000"/><rect width="6" height="6" x="18" y="126" style="fill:#000"/><rect width="6" height="6" x="24" y="126" style="fill:#000"/><rect width="6" height="6" x="30" y="126" style="fill:#000"/><rect width="6" height="6" x="48" y="126" style="fill:#000"/><rect width="6" height="6" x="78" y="126" style="fill:#000"/><rect width="6" height="6" x="84" y="126" style="fill:#000"/><rect width="6" height="6" x="126" y="126" style="fill:#000"/><rect width="6" height="6" x="138" y="126" style="fill:#000"/><rect width="6" height="6" x="144" y="126" style="fill:#000"/><rect width="6" height="6" x="174" y="126" style="fill:#000"/><rect width="6" height="6" x="186" y="126" style="fill:#000"/>
<rect width="6" height="6" x="0" y="132" style="fill:#000"/><rect width="6" height="6" x="6" y="132" style="fill:#000"/><rect width="6" height="6" x="12" y="132" style="fill:#000"/><rect width="6" height="6" x="18" y="132" style="fill:#000"/><rect width="6" height="6" x="24" y="132" style="fill:#000"/><rect width="6" height="6" x="30" y="132" style="fill:#000"/><rect width="6" height="6" x="36" y="132" style="fill:#000"/><rect width="6" height="6" x="60" y="132" style="fill:#000"/><rect width="6" height="6" x="66" y="132" style="fill:#000"/><rect width="6" height="6" x="84" y="132" style="fill:#000"/><rect width="6" height="6" x="90" y="132" style="fill:#000"/><rect width="6" height="6" x="102" y="132" style="fill:#000"/><rect width="6" height="6" x="108" y="132" style="fill:#000"/><rect width="6" height="6" x="126" y="132" style="fill:#000"/><rect width="6" height="6" x="138" y="132" style="fill:#000"/><rect width="6" height="6" x="144" y="132" style="fill:#000"/><rect width="6" height="6" x="156" y="132" style="fill:#000"/><rect width="6" height="6" x="168" y="132" style="fill:#000"/><rect width="6" height="6" x="192" y="132" style="fill:#000"/>
<rect width="6" height="6" x="6" y="138" style="fill:#000"/><rect width="6" height="6" x="18" y="138" style="fill:#000"/><rect width="6" height="6" x="54" y="138" style="fill:#000"/><rect width="6" height="6" x="60" y="138" style="fill:#000"/><rect width="6" height="6" x="84" y="138" style="fill:#000"/><rect width="6" height="6" x="120" y="138" style="fill:#000"/><rect width="6" height="6" x="126" y="138" style="fill:#000"/><rect width="6" height="6" x="138" y="138" style="fill:#000"/><rect width="6" height="6" x="144" y="138" style="fill:#000"/><rect width="6" height="6" x="150" y="138" style="fill:#000"/><rect width="6" height="6" x="156" y="138" style="fill:#000"/><rect width="6" height="6" x="162" y="138" style="fill:#000"/><rect width="6" height="6" x="174" y="138" style="fill:#000"/><rect width="6" height="6" x="186" y="138" style="fill:#000"/>
<rect width="6" height="6" x="0" y="144" style="fill:#000"/><rect width="6" height="6" x="18" y="144" style="fill:#000"/><rect width="6" height="6" x="36" y="144" style="fill:#000"/><rect width="6" height="6" x="42" y="144" style="fill:#000"/><rect width="6" height="6" x="48" y="144" style="fill:#000"/><rect width="6" height="6" x="72" y="144" style="fill:#000"/><rect width="6" height="6" x="78" y="144" style="fill:#000"/><rect width="6" height="6" x="84" y="144" style="fill:#000"/><rect width="6" height="6" x="90" y="144" style="fill:#000"/><rect width="6" height="6" x="96" y="144" style="fill:#000"/><rect width="6" height="6" x="108" y="144" style="fill:#000"/><rect width="6" height="6" x="126" y="144" style="fill:#000"/><rect width="6" height="6" x="138" y="144" style="fill:#000"/><rect width="6" height="6" x="144" y="144" style="fill:#000"/><rect width="6" height="6" x="150" y="144" style="fill:#000"/><rect width="6" height="6" x="156" y="144" style="fill:#000"/><rect width="6" height="6" x="162" y="144" style="fill:#000"/><rect width="6" height="6" x="168" y="144" style="fill:#000"/><rect width="6" height="6" x="174" y="144" style="fill:#000"/><rect width="6" height="6" x="192" y="144" style="fill:#000"/>
<rect width="6" height="6" x="48" y="150" style="fill:#000"/><rect width="6" height="6" x="54" y="150" style="fill:#000"/><rect width="6" height="6" x="60" y="150" style="fill:#000"/><rect width="6" height="6" x="72" y="150" style="fill:#000"/><rect width="6" height="6" x="78" y="150" style="fill:#000"/><rect width="6" height="6" x="84" y="150" style="fill:#000"/><rect width="6" height="6" x="90" y="150" style="fill:#000"/><rect width="6" height="6" x="96" y="150" style="fill:#000"/><rect width="6" height="6" x="114" y="150" style="fill:#000"/><rect width="6" height="6" x="120" y="150" style="fill:#000"/><rect width="6" height="6" x="126" y="150" style="fill:#000"/><rect width="6" height="6" x="138" y="150" style="fill:#000"/><rect width="6" height="6" x="144" y="150" style="fill:#000"/><rect width="6" height="6" x="168" y="150" style="fill:#000"/><rect width="6" height="6" x="192" y="150" style="fill:#000"/>
<rect width="6" height="6" x="0" y="156" style="fill:#000"/><rect width="6" height="6" x="6" y="156" style="fill:#000"/><rect width="6" height="6" x="12" y="156" style="fill:#000"/><rect width="6" height="6" x="18" y="156" style="fill:#000"/><rect width="6" height="6" x="24" y="156" style="fill:#000"/><rect width="6" height="6" x="30" y="156" style="fill:#000"/><rect width="6" height="6" x="36" y="156" style="fill:#000"/><rect width="6" height="6" x="54" y="156" style="fill:#000"/><rect width="6" height="6" x="66" y="156" style="fill:#000"/><rect width="6" height="6" x="72" y="156" style="fill:#000"/><rect width="6" height="6" x="78" y="156" style="fill:#000"/><rect width="6" height="6" x="90" y="156" style="fill:#000"/><rect width="6" height="6" x="102" y="156" style="fill:#000"/><rect width="6" height="6" x="108" y="156" style="fill:#000"/><rect width="6" height="6" x="114" y="156" style="fill:#000"/><rect width="6" height="6" x="120" y="156" style="fill:#000"/><rect width="6" height="6" x="132" y="156" style="fill:#000"/><rect width="6" height="6" x="144" y="156" style="fill:#000"/><rect width="6" height="6" x="156" y="156" style="fill:#000"/><rect width="6" height="6" x="168" y="156" style="fill:#000"/><rect width="6" height="6" x="180" y="156" style="fill:#000"/>
<rect width="6" height="6" x="0" y="162" style="fill:#000"/><rect width="6" height="6" x="36" y="162" style="fill:#000"/><rect width="6" height="6" x="60" y="162" style="fill:#000"/><rect width="6" height="6" x="84" y="162" style="fill:#000"/><rect width="6" height="6" x="90" y="162" style="fill:#000"/><rect width="6" height="6" x="96" y="162" style="fill:#000"/><rect width="6" height="6" x="108" y="162" style="fill:#000"/><rect width="6" height="6" x="114" y="162" style="fill:#000"/><rect width="6" height="6" x="126" y="162" style="fill:#000"/><rect width="6" height="6" x="132" y="162" style="fill:#000"/><rect width="6" height="6" x="144" y="162" style="fill:#000"/><rect width="6" height="6" x="168" y="162" style="fill:#000"/>
<rect width="6" height="6" x="0" y="168" style="fill:#000"/><rect width="6" height="6" x="12" y="168" style="fill:#000"/><rect width="6" height="6" x="18" y="168" style="fill:#000"/><rect width="6" height="6" x="24" y="168" style="fill:#000"/><rect width="6" height="6" x="36" y="168" style="fill:#000"/><rect width="6" height="6" x="66" y="168" style="fill:#000"/><rect width="6" height="6" x="72" y="168" style="fill:#000"/><rect width="6" height="6" x="114" y="168" style="fill:#000"/><rect width="6" height="6" x="144" y="168" style="fill:#000"/><rect width="6" height="6" x="150" y="168" style="fill:#000"/><rect width="6" height="6" x="156" y="168" style="fill:#000"/><rect width="6" height="6" x="162" y="168" style="fill:#000"/><rect width="6" height="6" x="168" y="168" style="fill:#000"/><rect width="6" height="6" x="186" y="168" style="fill:#000"/>
<rect width="6" height="6" x="0" y="174" style="fill:#000"/><rect width="6" height="6" x="12" y="174" style="fill:#000"/><rect width="6" height="6" x="18" y="174" style="fill:#000"/><rect width="6" height="6" x="24" y="174" style="fill:#000"/><rect width="6" height="6" x="36" y="174" style="fill:#000"/><rect width="6" height="6" x="48" y="174" style="fill:#000"/><rect width="6" height="6" x="66" y="174" style="fill:#000"/><rect width="6" height="6" x="72" y="174" style="fill:#000"/><rect width="6" height="6" x="90" y="174" style="fill:#000"/><rect width="6" height="6" x="96" y="174" style="fill:#000"/><rect width="6" height="6" x="102" y="174" style="fill:#000"/><rect width="6" height="6" x="108" y="174" style="fill:#000"/><rect width="6" height="6" x="114" y="174" style="fill:#000"/><rect width="6" height="6" x="132" y="174" style="fill:#000"/><rect width="6" height="6" x="138" y="174" style="fill:#000"/><rect width="6" height="6" x="144" y="174" style="fill:#000"/><rect width="6" height="6" x="150" y="174" style="fill:#000"/><rect width="6" height="6" x="156" y="174" style="fill:#000"/><rect width="6" height="6" x="162" y="174" style="fill:#000"/><rect width="6" height="6" x="168" y="174" style="fill:#000"/><rect width="6" height="6" x="192" y="174" style="fill:#000"/>
<rect width="6" height="6" x="0" y="180" style="fill:#000"/><rect width="6" height="6" x="12" y="180" style="fill:#000"/><rect width="6" height="6" x="18" y="180" style="fill:#000"/><rect width="6" height="6" x="24" y="180" style="fill:#000"/><rect width="6" height="6" x="36" y="180" style="fill:#000"/><rect width="6" height="6" x="54" y="180" style="fill:#000"/><rect width="6" height="6" x="66" y="180" style="fill:#000"/><rect width="6" height="6" x="72" y="180" style="fill:#000"/><rect width="6" height="6" x="84" y="180" style="fill:#000"/><rect width="6" height="6" x="90" y="180" style="fill:#000"/><rect width="6" height="6" x="96" y="180" style="fill:#000"/><rect width="6" height="6" x="102" y="180" style="fill:#000"/><rect width="6" height="6" x="114" y="180" style="fill:#000"/><rect width="6" height="6" x="126" y="180" style="fill:#000"/><rect width="6" height="6" x="144" y="180" style="fill:#000"/><rect width="6" height="6" x="162" y="180" style="fill:#000"/><rect width="6" height="6" x="168" y="180" style="fill:#000"/><rect width="6" height="6" x="174" y="180" style="fill:#000"/><rect width="6" height="6" x="180" y="180" style="fill:#000"/><rect width="6" height="6" x="192" y="180" style="fill:#000"/>
<rect width="6" height="6" x="0" y="186" style="fill:#000"/><rect width="6" height="6" x="36" y="186" style="fill:#000"/><rect width="6" height="6" x="54" y="186" style="fill:#000"/><rect width="6" height="6" x="60" y="186" style="fill:#000"/><rect width="6" height="6" x="78" y="186" style="fill:#000"/><rect width="6" height="6" x="84" y="186" style="fill:#000"/><rect width="6" height="6" x="138" y="186" style="fill:#000"/><rect width="6" height="6" x="144" y="186" style="fill:#000"/><rect width="6" height="6" x="150" y="186" style="fill:#000"/><rect width="6" height="6" x="156" y="186" style="fill:#000"/><rect width="6" height="6" x="162" y="186" style="fill:#000"/><rect width="6" height="6" x="174" y="186" style="fill:#000"/>
<rect width="6" height="6" x="0" y="192" style="fill:#000"/><rect width="6" height="6" x="6" y="192" style="fill:#000"/><rect width="6" height="6" x="12" y="192" style="fill:#000"/><rect width="6" height="6" x="18" y="192" style="fill:#000"/><rect width="6" height="6" x="24" y="192" style="fill:#000"/><rect width="6" height="6" x="30" y="192" style="fill:#000"/><rect width="6" height="6" x="36" y="192" style="fill:#000"/><rect width="6" height="6" x="66" y="192" style="fill:#000"/><rect width="6" height="6" x="84" y="192" style="fill:#000"/><rect width="6" height="6" x="90" y="192" style="fill:#000"/><rect width="6" height="6" x="96" y="192" style="fill:#000"/><rect width="6" height="6" x="102" y="192" style="fill:#000"/><rect width="6" height="6" x="108" y="192" style="fill:#000"/><rect width="6" height="6" x="132" y="192" style="fill:#000"/><rect width="6" height="6" x="144" y="192" style="fill:#000"/><rect width="6" height="6" x="168" y="192" style="fill:#000"/><rect width="6" height="6" x="180" y="192" style="fill:#000"/><rect width="6" height="6" x="186" y="192" style="fill:#000"/>
</svg>